<?xml version="1.0" encoding="UTF-8"?>
<svg id="Layer_1" xmlns="http://www.w3.org/2000/svg" version="1.1" viewBox="0 0 1024 1024">
  <!-- Generator: Adobe Illustrator 29.5.1, SVG Export Plug-In . SVG Version: 2.1.0 Build 141)  -->
  <defs>
    <style>
      .st0, .st1 {
        fill: #5e81ac;
      }

      .st1 {
        font-family: EthnocentricRg-Regular, Ethnocentric;
        font-size: 595.8px;
      }
    </style>
  </defs>
  <rect class="st0" x="412" y="210.7" width="200" height="51.6"/>
  <path class="st0" d="M376.3,38.6h271.3c7.5,0,13.6,6.1,13.6,13.6v119.1c0,7.5-6.1,13.6-13.6,13.6h-271.3c-7.5,0-13.6-6.1-13.6-13.6V52.2c0-7.5,6.1-13.6,13.6-13.6Z"/>
  <path class="st0" d="M681.2,301.6c0-7.5-6.1-13.6-13.6-13.6h-311.3c-7.5,0-13.6,6.1-13.6,13.6v119.1c0,1.8.4,3.5,1,5h336.5c.6-1.6,1-3.2,1-5v-119.1Z"/>
  <path class="st0" d="M778.9,451.6H245.1c-3.6,0-7,1.4-9.6,4s-4,6-4,9.6v66.8h561v-66.8c0-7.5-6.1-13.6-13.6-13.6Z"/>
  <path class="st0" d="M320.9,967.1h17.8c7.5,0,13.6-6.1,13.6-13.6v-60.2h-45v60.2c0,7.5,6.1,13.6,13.6,13.6Z"/>
  <path class="st0" d="M503.1,967.1h17.8c7.5,0,13.6-6.1,13.6-13.6v-60.2h-45v60.2c0,7.5,6.1,13.6,13.6,13.6Z"/>
  <path class="st0" d="M685.3,967.1h17.8c7.5,0,13.6-6.1,13.6-13.6v-60.2h-45v60.2c0,7.5,6.1,13.6,13.6,13.6Z"/>
  <rect class="st0" x="180.2" y="557.7" width="663.6" height="309.8" rx="13.6" ry="13.6"/>
  <text class="st1" transform="translate(-1533.3 1361)"><tspan x="0" y="0">GPI</tspan></text>
  <rect class="st0" x="-635.7" y="415.4" width="67.9" height="10.1" transform="translate(-236.1 -216.1) rotate(-25.2)"/>
  <path class="st0" d="M-659,416.3c2.6,1,5.5.8,8-.4l77.1-36.2c5.2-2.5,7.5-8.7,5-14l-11-23.5c-1.2-2.5-3.3-4.5-5.9-5.4-1.2-.4-2.4-.6-3.6-.6s-3,.3-4.5,1l-77.1,36.2c-2.5,1.2-4.5,3.3-5.4,5.9-1,2.6-.8,5.5.4,8l11,23.5c1.2,2.5,3.3,4.5,5.9,5.4Z"/>
  <path class="st0" d="M-520.5,450.2l-11-23.5c-1.2-2.5-3.3-4.5-5.9-5.4-1.2-.4-2.4-.6-3.6-.6s-3,.3-4.5,1l-91.1,42.9c-2.5,1.2-4.5,3.3-5.4,5.9s-.8,5.5.4,8l11,23.5c1.1,2.4,3.1,4.3,5.6,5.3l105-49.4c.8-2.6.7-5.3-.5-7.7Z"/>
  <path class="st0" d="M-474.8,459.8c-1.5,0-3,.3-4.5,1l-169.5,79.7c-2.5,1.2-4.5,3.3-5.4,6-1,2.6-.8,5.5.4,8l4.6,9.8,188.5-88.7-4.6-9.8c-1.8-3.8-5.6-6-9.5-6Z"/>
  <path class="st0" d="M-547,703.4h0c1.2-.6,1.7-1.6,1.9-2.1.2-.5.4-1.7-.1-2.9l-6.4-13.6-6.8,3.2,6.4,13.6c.9,1.9,3.1,2.7,5,1.8Z"/>
  <path class="st0" d="M-485.7,673.3c.5.2,1.7.4,2.9-.1h0c1.2-.6,1.7-1.6,1.9-2.1.2-.5.4-1.7-.1-2.9l-6.4-13.6-6.8,3.2,6.4,13.6c.6,1.2,1.6,1.7,2.1,1.9Z"/>
  <path class="st0" d="M-418.7,643c1.2-.6,1.7-1.6,1.9-2.1.2-.5.4-1.7-.1-2.9l-6.4-13.6-6.8,3.2,6.4,13.6c.9,1.9,3.1,2.7,5,1.8Z"/>
  <path class="st0" d="M-429.6,494.7c-1.8-3.8-5.6-6-9.5-6s-3,.3-4.5,1l-205.6,96.7c-2.5,1.2-4.5,3.3-5.4,5.9-1,2.6-.8,5.5.4,8l38.1,81c2.5,5.2,8.7,7.5,14,5l205.6-96.7c2.5-1.2,4.5-3.3,5.4-5.9,1-2.6.8-5.5-.4-8l-38.1-81Z"/>
</svg>