<?xml version="1.0" encoding="UTF-8"?>
<svg id="Layer_1" data-name="Layer 1" xmlns="http://www.w3.org/2000/svg" viewBox="0 0 655.62 148.27">
  <defs>
    <style>
      .cls-1 {
        fill: #ebcb8b;
      }

      .cls-2 {
        fill: none;
        stroke: #ebcb8b;
        stroke-miterlimit: 10;
        stroke-width: 7px;
      }
    </style>
  </defs>
  <g>
    <path class="cls-1" d="M29.17,119.66l2.41-7.73V35.53l-2.41-7.73h55.49l6.53,6.53.66,2.12v41.78l-8.58,8.58h-27.96l-3.15,3.16v20.6l3.03,9.1h-26.01ZM52.14,47.32v19.96l3.16,3.15h13.83l7.12-3.56,3.56-7.12v-4.91l-3.56-7.12-7.12-3.56h-13.83l-3.16,3.15Z"/>
    <polygon class="cls-1" points="95.43 119.66 97.84 111.94 97.84 35.53 95.43 27.8 145.62 27.8 148.32 36.44 148.32 44.6 147.07 44.17 121.08 44.17 118.41 47.51 118.41 59.59 121.56 62.75 132.38 62.75 139.38 60.42 139.38 81.45 132.38 79.12 121.56 79.12 118.41 82.27 118.41 98.04 122.26 101.89 147.48 101.89 148.32 101.61 148.32 111.02 145.62 119.66 95.43 119.66"/>
    <path class="cls-1" d="M151.91,119.66l2.41-7.73V35.53l-2.41-7.73h55.49l17.81,17.81v17.81l-11.86,47-3.27,6.55-2.68,2.68h-55.49ZM176.28,46.62v52.12l3.85,3.85h10.34l8.52-4.26,4.26-8.52v-33.57l-4.26-8.52-8.52-4.26h-11.04l-3.16,3.15Z"/>
    <path class="cls-1" d="M273.41,119.66l1.05-8.37-2.43-9.74-2.86-2.86h-25.55l-2.86,2.86-2.43,9.74,1.05,8.37h-23.9l3.57-7.13,19.83-78.61-1.41-6.12h39.99l-1.41,6.12,11.82,46.88v30.22l-2.7,8.64h-11.73ZM245.32,80.27l3.46,3.45h15.07l3.46-3.45-7.34-31.55-.68-4.76h-5.94s-.68,4.76-.68,4.76l-7.34,31.55Z"/>
    <polygon class="cls-1" points="291.42 119.66 293.83 111.94 293.83 35.53 291.42 27.8 316.8 27.8 317.59 29.4 315.09 36.9 315.09 98.04 318.95 101.89 340.26 101.89 340.73 101.73 344.38 113.96 342.49 119.66 291.42 119.66"/>
    <polygon class="cls-1" points="352.34 119.66 327.04 34.88 323.51 27.8 349.5 27.8 348.45 36.2 360.44 79.91 361.11 85.29 367.06 85.29 367.74 79.91 379.72 36.2 378.67 27.8 397.91 27.8 399.3 33.86 396.25 45.95 373.07 119.66 352.34 119.66"/>
    <path class="cls-1" d="M440.04,119.66l1.05-8.37-2.43-9.74-2.86-2.86h-25.55l-2.86,2.86-2.43,9.74,1.05,8.37h-23.9l3.57-7.13,19.83-78.61-1.41-6.12h39.99l-1.41,6.12,9.73,38.57v24.71l-1.66,8.27,14.19,14.19h-24.86ZM411.95,80.27l3.46,3.45h15.07l3.46-3.45-7.34-31.55-.68-4.76h-5.94l-.68,4.76-7.34,31.55Z"/>
    <polygon class="cls-1" points="473.39 119.66 457.23 103.5 458.37 97.79 458.37 35.53 455.95 27.8 482.04 27.8 479.63 35.53 479.63 91.91 483.19 99.03 490.31 102.59 497.32 102.59 504.44 99.03 508 91.91 508 35.53 505.58 27.8 524.32 27.8 527.02 36.44 527.02 104.79 512.14 119.66 473.39 119.66"/>
    <polygon class="cls-1" points="530.6 119.66 533.02 111.94 533.02 35.53 530.6 27.8 557.31 27.8 554.28 36.9 554.28 42.67 549.3 57.53 554.28 55.85 554.28 98.04 558.13 101.89 577.91 101.89 577.91 107.49 573.85 119.66 530.6 119.66"/>
    <polygon class="cls-1" points="580.17 119.66 583.91 108.47 583.91 48.02 580.75 44.87 568.11 44.87 558.82 47.99 565.59 27.8 623.48 27.8 630.25 47.99 620.96 44.87 608.32 44.87 605.17 48.02 605.17 108.47 608.9 119.66 580.17 119.66"/>
  </g>
  <rect class="cls-2" x="16" y="14.67" width="623.79" height="119.31"/>
</svg>